<?xml version="1.0" encoding="UTF-8"?>
<svg version="1.1" xmlns="http://www.w3.org/2000/svg" width="80" height="90">
<path d="M0 0 C4.66666667 4.66666667 9.33333333 9.33333333 14 14 C14.53367187 13.81824219 15.06734375 13.63648438 15.6171875 13.44921875 C17.20431913 12.91376777 18.79446469 12.38720827 20.38671875 11.8671875 C22.04469253 11.31700786 23.69469613 10.74167079 25.33203125 10.1328125 C36.04175865 6.40305669 46.55017709 6.84183924 56.95703125 11.31640625 C62.05582635 14.13743409 65.99622262 17.80729664 70 22 C70.89525391 22.88365234 70.89525391 22.88365234 71.80859375 23.78515625 C80.51265865 32.9667509 80.43797952 42.97683232 80.140625 54.9765625 C80.0965218 56.31780234 80.05075127 57.65899526 80 59 C77.56348999 60.21825501 75.77619 60.21841488 73.0546875 60.359375 C71.56195313 60.45605469 71.56195313 60.45605469 70.0390625 60.5546875 C67.95394904 60.68339821 65.86793178 60.79831893 63.78125 60.8984375 C57.6284757 61.32549381 53.79935807 62.31883573 48.77880859 65.89550781 C44.44633378 68.58561432 38.85170969 67.57004422 34 67 C28.72388713 65.30410658 26.0506052 62.48618412 23 58 C23 56.35 23 54.7 23 53 C36.86 52.67 50.72 52.34 65 52 C65 42.33699991 64.15060536 36.53451408 57.74609375 29.5390625 C52.00834001 24.48162408 45.01119535 22.59457541 37.5 22.73046875 C30.98778615 23.43256681 25.63780369 25.86148499 21.125 30.625 C18.08402882 34.42442517 16.37258356 38.40704873 14.82421875 42.99609375 C14 45 14 45 12 46 C8.04 46 4.08 46 0 46 C0 30.82 0 15.64 0 0 Z " fill="#B4373C" transform="translate(0,1)"/>
<path d="M0 0 C1.65322266 0.01740234 1.65322266 0.01740234 3.33984375 0.03515625 C4.99693359 0.04869141 4.99693359 0.04869141 6.6875 0.0625 C7.54214844 0.07410156 8.39679687 0.08570313 9.27734375 0.09765625 C9.65246094 0.82210937 10.02757812 1.5465625 10.4140625 2.29296875 C16.2373573 13.57036595 16.2373573 13.57036595 26.55859375 20.3984375 C35.35272813 22.66014735 43.39178164 21.90419774 51.2890625 17.484375 C53.31315946 16.20565576 53.31315946 16.20565576 54.63671875 14.4453125 C57.21540212 12.32710831 59.57943542 12.77479796 62.83984375 12.84765625 C63.99613281 12.863125 65.15242188 12.87859375 66.34375 12.89453125 C69.27734375 13.09765625 69.27734375 13.09765625 71.27734375 14.09765625 C70.75609075 20.30833026 66.65714213 22.84218409 62.19921875 26.72265625 C53.32801812 33.93347174 45.89631268 36.47465457 34.46484375 36.59765625 C33.04461914 36.65953125 33.04461914 36.65953125 31.59570312 36.72265625 C24.17342385 36.80438816 19.96353466 34.75410982 14.27734375 30.09765625 C13.34664062 29.370625 12.4159375 28.64359375 11.45703125 27.89453125 C4.43893797 21.66151281 -2.59852687 15.27761088 -3.72265625 5.53515625 C-3.84765625 3.03125 -3.84765625 3.03125 -3.72265625 1.09765625 C-2.72265625 0.09765625 -2.72265625 0.09765625 0 0 Z " fill="#5A5A5B" transform="translate(3.72265625,53.90234375)"/>
<path d="M0 0 C7.53717913 2.40315856 13.65142367 9.26689178 17.7890625 15.84375 C20.26641401 20.76947815 22.1331196 25.10022244 22.09765625 30.66796875 C22.09282227 32.00698242 22.09282227 32.00698242 22.08789062 33.37304688 C22.07532227 34.76620117 22.07532227 34.76620117 22.0625 36.1875 C22.05798828 37.12787109 22.05347656 38.06824219 22.04882812 39.03710938 C22.03704626 41.35813712 22.02059558 43.67903644 22 46 C19.56348999 47.21825501 17.77619 47.21841488 15.0546875 47.359375 C13.56195313 47.45605469 13.56195313 47.45605469 12.0390625 47.5546875 C9.95394904 47.68339821 7.86793178 47.79831893 5.78125 47.8984375 C-0.3715243 48.32549381 -4.20064193 49.31883573 -9.22119141 52.89550781 C-13.55366622 55.58561432 -19.14829031 54.57004422 -24 54 C-29.27611287 52.30410658 -31.9493948 49.48618412 -35 45 C-35 43.35 -35 41.7 -35 40 C-21.14 39.67 -7.28 39.34 7 39 C7 29.33699991 6.15060536 23.53451408 -0.25390625 16.5390625 C-5.99165999 11.48162408 -12.98880465 9.59457541 -20.5 9.73046875 C-27.01221385 10.43256681 -32.36219631 12.86148499 -36.875 17.625 C-39.91597118 21.42442517 -41.62741644 25.40704873 -43.17578125 29.99609375 C-44 32 -44 32 -46 33 C-48.04055005 33.07065617 -50.08334257 33.08421976 -52.125 33.0625 C-53.22070312 33.05347656 -54.31640625 33.04445312 -55.4453125 33.03515625 C-56.28835937 33.02355469 -57.13140625 33.01195312 -58 33 C-58 32.34 -58 31.68 -58 31 C-53.71 31 -49.42 31 -45 31 C-44.95875 30.01 -44.9175 29.02 -44.875 28 C-43.90792172 21.17519041 -38.05051419 15.31141455 -33 11 C-25.94369216 6.73681402 -17.74726777 6.85004073 -9.85546875 8.76171875 C-5.87353234 10.11035317 -2.85859623 11.13355554 0.13671875 14.15625 C0.75160156 14.7646875 1.36648437 15.373125 2 16 C4.70705512 15.85974801 4.70705512 15.85974801 7 15 C7 15.66 7 16.32 7 17 C8.65 16.67 10.3 16.34 12 16 C9.99094549 10.28719728 9.99094549 10.28719728 6 6 C2.89160979 5.2730774 2.89160979 5.2730774 0 5 C0 3.33333333 0 1.66666667 0 0 Z " fill="#B7494C" transform="translate(58,14)"/>
<path d="M0 0 C1.65322266 0.01740234 1.65322266 0.01740234 3.33984375 0.03515625 C4.99693359 0.04869141 4.99693359 0.04869141 6.6875 0.0625 C7.54214844 0.07410156 8.39679687 0.08570313 9.27734375 0.09765625 C9.65246094 0.82210937 10.02757812 1.5465625 10.4140625 2.29296875 C16.23913638 13.56374471 16.23913638 13.56374471 26.55078125 20.40234375 C33.63465321 22.20883259 41.44326306 22.47710736 48.02734375 19.03515625 C49.09984375 18.39578125 50.17234375 17.75640625 51.27734375 17.09765625 C51.93734375 17.42765625 52.59734375 17.75765625 53.27734375 18.09765625 C46.39764667 22.83700313 41.71645481 23.19886416 33.61328125 22.97070312 C29.3117391 22.90678161 26.2356775 23.20744069 22.27734375 25.09765625 C21.61734375 25.09765625 20.95734375 25.09765625 20.27734375 25.09765625 C18.52368735 27.43707969 18.52368735 27.43707969 17.27734375 30.09765625 C17.60734375 30.75765625 17.93734375 31.41765625 18.27734375 32.09765625 C9.50053921 28.22375632 1.50972376 19.61418849 -2.72265625 11.09765625 C-3.53724377 7.73690088 -3.94611916 4.55434814 -3.72265625 1.09765625 C-2.72265625 0.09765625 -2.72265625 0.09765625 0 0 Z " fill="#6D6D6E" transform="translate(3.72265625,53.90234375)"/>
<path d="M0 0 C0.99 0.33 1.98 0.66 3 1 C3.33 2.65 3.66 4.3 4 6 C4.66 6 5.32 6 6 6 C5.34 7.32 4.68 8.64 4 10 C4.66 10.33 5.32 10.66 6 11 C6 10.34 6 9.68 6 9 C6.99 9 7.98 9 9 9 C8.67 8.34 8.34 7.68 8 7 C10.64 7.33 13.28 7.66 16 8 C16 7.34 16 6.68 16 6 C17.32 6.33 18.64 6.66 20 7 C19.8125 8.8125 19.8125 8.8125 19 11 C18.175 11.474375 17.35 11.94875 16.5 12.4375 C13.78717804 13.74642787 13.78717804 13.74642787 13.3125 16.375 C13.209375 17.24125 13.10625 18.1075 13 19 C11.62848034 22.82066191 9.84609306 26.38807879 8 30 C7.67 30.66 7.34 31.32 7 32 C3.37 32 -0.26 32 -4 32 C-4 22.43 -4 12.86 -4 3 C-3.34 2.67 -2.68 2.34 -2 2 C-1.67 2.99 -1.34 3.98 -1 5 C-0.67 3.35 -0.34 1.7 0 0 Z " fill="#B63436" transform="translate(5,12)"/>
<path d="M0 0 C0.33 0 0.66 0 1 0 C1 1.65 1 3.3 1 5 C0.67 5 0.34 5 0 5 C0 3.35 0 1.7 0 0 Z M1 -6 C3 -4 3 -4 3.22705078 -2.02880859 C3.21657715 -1.24328613 3.20610352 -0.45776367 3.1953125 0.3515625 C3.18886719 1.20234375 3.18242188 2.053125 3.17578125 2.9296875 C3.15902344 3.81914063 3.14226562 4.70859375 3.125 5.625 C3.11597656 6.5221875 3.10695312 7.419375 3.09765625 8.34375 C3.0740497 10.56276586 3.0411231 12.78125077 3 15 C2.27409668 15.00410889 1.54819336 15.00821777 0.80029297 15.01245117 C-2.50894916 15.0454749 -5.81637184 15.11613026 -9.125 15.1875 C-10.26710937 15.19330078 -11.40921875 15.19910156 -12.5859375 15.20507812 C-19.63347254 15.23143776 -19.63347254 15.23143776 -25.6171875 18.48828125 C-26.40351562 19.31714844 -27.18984375 20.14601563 -28 21 C-33.02957058 22.67652353 -38.33655815 23.07699578 -43.328125 21.05859375 C-47.33991501 18.68866595 -50.10517386 16.38178545 -52 12 C-52 11.34 -52 10.68 -52 10 C-37.48 10 -22.96 10 -8 10 C-8 7.03 -8 4.06 -8 1 C-7.67 1 -7.34 1 -7 1 C-6.97311849 2.64574566 -6.95365877 4.29161413 -6.9375 5.9375 C-6.92589844 6.85402344 -6.91429687 7.77054688 -6.90234375 8.71484375 C-7 11 -7 11 -8 12 C-5.36 12 -2.72 12 0 12 C0 11.34 0 10.68 0 10 C0.66 10 1.32 10 2 10 C1.67 4.72 1.34 -0.56 1 -6 Z " fill="#9F4449" transform="translate(76,45)"/>
<path d="M0 0 C3.19825168 2.57202058 5.2886466 5.17303098 7.1875 8.8125 C6.8575 9.8025 6.5275 10.7925 6.1875 11.8125 C-4.7025 11.8125 -15.5925 11.8125 -26.8125 11.8125 C-27.1425 10.4925 -27.4725 9.1725 -27.8125 7.8125 C-26.484375 5.7421875 -26.484375 5.7421875 -24.5625 3.6875 C-23.93859375 3.00429688 -23.3146875 2.32109375 -22.671875 1.6171875 C-16.44299388 -4.42849124 -7.18170615 -4.80324863 0 0 Z " fill="#4F5052" transform="translate(50.8125,34.1875)"/>
<path d="M0 0 C5.53754628 4.27993503 9.29223356 9.16893424 11 16 C11 20.29 11 24.58 11 29 C-3.19 29 -17.38 29 -32 29 C-27.91986416 36.42908647 -27.91986416 36.42908647 -21 40 C-14.14489456 41.06904377 -9.61478935 39.97714246 -4 36 C-3.34 35.34 -2.68 34.68 -2 34 C0.43017578 33.77294922 0.43017578 33.77294922 3.4453125 33.8046875 C5.05986328 33.81435547 5.05986328 33.81435547 6.70703125 33.82421875 C8.39892578 33.84935547 8.39892578 33.84935547 10.125 33.875 C11.82849609 33.88853516 11.82849609 33.88853516 13.56640625 33.90234375 C16.37781299 33.92596902 19.18880298 33.95890987 22 34 C22 34.33 22 34.66 22 35 C21.34515625 35.03440186 20.6903125 35.06880371 20.015625 35.10424805 C17.00858408 35.27546462 14.00483077 35.48121453 11 35.6875 C9.45505859 35.76774414 9.45505859 35.76774414 7.87890625 35.84960938 C1.70272625 36.30200473 -2.18585113 37.30542899 -7.22558594 40.89770508 C-11.55456603 43.58693803 -17.15197832 42.5696109 -22 42 C-27.27611287 40.30410658 -29.9493948 37.48618412 -33 33 C-33 31.35 -33 29.7 -33 28 C-19.14 27.67 -5.28 27.34 9 27 C9 17.33699991 8.15060536 11.53451408 1.74609375 4.5390625 C-3.99165999 -0.51837592 -10.98880465 -2.40542459 -18.5 -2.26953125 C-25.01221385 -1.56743319 -30.36219631 0.86148499 -34.875 5.625 C-37.91597118 9.42442517 -39.62741644 13.40704873 -41.17578125 17.99609375 C-42 20 -42 20 -44 21 C-46.04055005 21.07065617 -48.08334257 21.08421976 -50.125 21.0625 C-51.22070312 21.05347656 -52.31640625 21.04445313 -53.4453125 21.03515625 C-54.70988281 21.01775391 -54.70988281 21.01775391 -56 21 C-56 20.34 -56 19.68 -56 19 C-51.71 19 -47.42 19 -43 19 C-42.95875 18.01 -42.9175 17.02 -42.875 16 C-41.90792172 9.17519041 -36.05051419 3.31141455 -31 -1 C-21.63013871 -6.66095786 -9.33386976 -5.0993346 0 0 Z " fill="#FBDEDD" transform="translate(56,26)"/>
<path d="M0 0 C4.66666667 4.66666667 9.33333333 9.33333333 14 14 C14.58007812 13.79503906 15.16015625 13.59007812 15.7578125 13.37890625 C20.1621984 11.85990187 24.35677777 10.5952849 29 10 C29 10.99 29 11.98 29 13 C26.69 13 24.38 13 22 13 C22 13.66 22 14.32 22 15 C21.34 15 20.68 15 20 15 C20.33 16.32 20.66 17.64 21 19 C20.05125 18.938125 19.1025 18.87625 18.125 18.8125 C16.578125 18.9053125 16.578125 18.9053125 15 19 C14.34 19.99 13.68 20.98 13 22 C13 21.34 13 20.68 13 20 C12.34 20 11.68 20 11 20 C11.33 20.99 11.66 21.98 12 23 C10.68 22.34 9.36 21.68 8 21 C8.66 20.01 9.32 19.02 10 18 C9.67 17.67 9.34 17.34 9 17 C8.63557767 15.33985384 8.30027117 13.67293936 8 12 C7.34 12 6.68 12 6 12 C5.67 13.98 5.34 15.96 5 18 C4.01 16.68 3.02 15.36 2 14 C1.67 23.57 1.34 33.14 1 43 C5.95 42.505 5.95 42.505 11 42 C11.33 41.34 11.66 40.68 12 40 C12.33 41.32 12.66 42.64 13 44 C8.71 44 4.42 44 0 44 C0 29.48 0 14.96 0 0 Z " fill="#B84347" transform="translate(0,1)"/>
<path d="M0 0 C3.3 0 6.6 0 10 0 C10.3403125 1.2065625 10.3403125 1.2065625 10.6875 2.4375 C11.120625 3.283125 11.55375 4.12875 12 5 C12.763125 5.144375 13.52625 5.28875 14.3125 5.4375 C18.38612047 6.29011824 19.71106289 8.66469164 22 12 C22 13.32 22 14.64 22 16 C17.96486881 16.8495013 14.94415653 17.39205524 11 16 C7.11881188 12.78415842 7.11881188 12.78415842 6.6875 9.9375 C6.08632234 7.52763816 6.08632234 7.52763816 2.4375 6.25 C1.303125 5.8375 0.16875 5.425 -1 5 C-0.67 3.35 -0.34 1.7 0 0 Z " fill="#B53434" transform="translate(48,14)"/>
<path d="M0 0 C4.29161047 -0.05783842 8.58312145 -0.0935412 12.875 -0.125 C14.09832031 -0.14175781 15.32164063 -0.15851562 16.58203125 -0.17578125 C17.74863281 -0.18222656 18.91523437 -0.18867187 20.1171875 -0.1953125 C21.19597168 -0.20578613 22.27475586 -0.21625977 23.38623047 -0.22705078 C26 0 26 0 28 2 C27.38125 2.144375 26.7625 2.28875 26.125 2.4375 C23.96741678 2.93152225 23.96741678 2.93152225 22 4 C22 4.66 22 5.32 22 6 C16.84776142 7.44624241 12.40540418 8.42395327 7 8 C6.01 7.34 5.02 6.68 4 6 C4 5.34 4 4.68 4 4 C2.68 3.67 1.36 3.34 0 3 C0 2.01 0 1.02 0 0 Z " fill="#B63437" transform="translate(28,57)"/>
<path d="M0 0 C9.23805298 -0.48550351 16.54022812 0.13267571 25 4 C25 4.33 25 4.66 25 5 C21.7 5 18.4 5 15 5 C15.33 6.32 15.66 7.64 16 9 C15.67 9.33 15.34 9.66 15 10 C18.465 11.485 18.465 11.485 22 13 C21.67 14.32 21.34 15.64 21 17 C20.45472656 16.80664062 19.90945312 16.61328125 19.34765625 16.4140625 C13.9561948 14.55239547 8.59078274 13.12344334 3 12 C3 11.67 3 11.34 3 11 C4.98 10.67 6.96 10.34 9 10 C9 8.35 9 6.7 9 5 C6.06279492 3.47700477 3.0831351 2.19899698 0 1 C0 0.67 0 0.34 0 0 Z " fill="#B54C50" transform="translate(33,9)"/>
<path d="M0 0 C0.99 0.33 1.98 0.66 3 1 C5.08765411 7.04320928 5.23415997 12.65166295 5 19 C4.34 19 3.68 19 3 19 C3 19.66 3 20.32 3 21 C0.04335481 22.4783226 -2.74229737 22.06032783 -6 22 C-5.66871094 21.46375 -5.33742188 20.9275 -4.99609375 20.375 C-3.40962406 16.59235853 -4.01585349 12.91017583 -4.22265625 8.875 C-3.96978788 5.60989265 -3.24042343 4.33588007 -1 2 C-0.67 2 -0.34 2 0 2 C0 1.34 0 0.68 0 0 Z M3 9 C3 10.65 3 12.3 3 14 C3.33 14 3.66 14 4 14 C4 12.35 4 10.7 4 9 C3.67 9 3.34 9 3 9 Z " fill="#B83438" transform="translate(73,36)"/>
<path d="M0 0 C2 2 2 2 2.22705078 3.97119141 C2.21657715 4.75671387 2.20610352 5.54223633 2.1953125 6.3515625 C2.19031738 7.11807129 2.18532227 7.88458008 2.18017578 8.67431641 C2.15286377 10.13490479 2.15286377 10.13490479 2.125 11.625 C2.08375 14.71875 2.0425 17.8125 2 21 C-5.92 21 -13.84 21 -22 21 C-22.33 20.01 -22.66 19.02 -23 18 C-15.74 18 -8.48 18 -1 18 C-1 17.34 -1 16.68 -1 16 C-0.34 16 0.32 16 1 16 C0.67 10.72 0.34 5.44 0 0 Z M-1 6 C-0.67 6 -0.34 6 0 6 C0 7.65 0 9.3 0 11 C-0.33 11 -0.66 11 -1 11 C-1 9.35 -1 7.7 -1 6 Z " fill="#A83B3F" transform="translate(77,39)"/>
<path d="M0 0 C0.99 0 1.98 0 3 0 C3.66 1.32 4.32 2.64 5 4 C3.35 4.66 1.7 5.32 0 6 C5.9172559 7.21825857 11.85751516 7.33647378 17.875 7.5625 C18.94492187 7.60568359 20.01484375 7.64886719 21.1171875 7.69335938 C23.74467754 7.79892817 26.37225422 7.90103791 29 8 C28.505 6.02 28.505 6.02 28 4 C28.99 4.66 29.98 5.32 31 6 C30.67 6.99 30.34 7.98 30 9 C19.11 9 8.22 9 -3 9 C-3.33 7.68 -3.66 6.36 -4 5 C-2.25 2.25 -2.25 2.25 0 0 Z " fill="#A4A6A8" transform="translate(27,37)"/>
<path d="M0 0 C1.58452263 1.74957707 1.92007264 3.14861337 2.3125 5.44921875 C1.6525 5.44921875 0.9925 5.44921875 0.3125 5.44921875 C-0.0175 6.10921875 -0.3475 6.76921875 -0.6875 7.44921875 C-0.3575 5.79921875 -0.0275 4.14921875 0.3125 2.44921875 C-0.6775 2.77921875 -1.6675 3.10921875 -2.6875 3.44921875 C-3.3475 3.11921875 -4.0075 2.78921875 -4.6875 2.44921875 C-6.69550456 2.73033939 -8.69764051 3.05989842 -10.6875 3.44921875 C-10.0275 1.79921875 -9.3675 0.14921875 -8.6875 -1.55078125 C-12.6475 -1.55078125 -16.6075 -1.55078125 -20.6875 -1.55078125 C-19.6875 -3.55078125 -19.6875 -3.55078125 -17.6875 -4.23828125 C-10.78654315 -4.95713092 -5.64250334 -4.14044805 0 0 Z " fill="#989899" transform="translate(52.6875,35.55078125)"/>
<path d="M0 0 C1.65 0 3.3 0 5 0 C3.80491691 3.71803628 1.53432914 5.44934176 -1.87890625 7.23046875 C-6.77111308 9.00535778 -11.65774041 9.05950353 -16.41796875 6.90625 C-18.39648291 5.70163253 -20.23692122 4.50206432 -22 3 C-22 2.67 -22 2.34 -22 2 C-19.6875 1.8125 -19.6875 1.8125 -17 2 C-16.54625 2.495 -16.0925 2.99 -15.625 3.5 C-13.97588769 5.33262323 -13.97588769 5.33262323 -10.8125 5.25 C-6.83394984 4.98911146 -2.94751022 4.55403652 1 4 C0.67 2.68 0.34 1.36 0 0 Z " fill="#A74A4D" transform="translate(49,59)"/>
<path d="M0 0 C0 0.66 0 1.32 0 2 C-2.31 2 -4.62 2 -7 2 C-7 2.66 -7 3.32 -7 4 C-7.66 4 -8.32 4 -9 4 C-8.67 5.32 -8.34 6.64 -8 8 C-9.45945288 7.91291331 -10.91765868 7.80473093 -12.375 7.6875 C-13.18710938 7.62949219 -13.99921875 7.57148438 -14.8359375 7.51171875 C-17 7 -17 7 -19 4 C-18.625 1.8125 -18.625 1.8125 -18 0 C-17.01 0.99 -16.02 1.98 -15 3 C-13.5410574 2.52269162 -12.08286504 2.04308958 -10.625 1.5625 C-9.81289063 1.29566406 -9.00078125 1.02882813 -8.1640625 0.75390625 C-3.22383073 -0.96714922 -3.22383073 -0.96714922 0 0 Z " fill="#B8605E" transform="translate(29,12)"/>
<path d="M0 0 C4.30002032 2.94211917 5.55899611 5.05941522 7 10 C8.51553153 12.30166675 8.51553153 12.30166675 10 14 C9.34 14.66 8.68 15.32 8 16 C8 15.34 8 14.68 8 14 C7.34 14 6.68 14 6 14 C6.33 14.99 6.66 15.98 7 17 C5.68 16.34 4.36 15.68 3 15 C3.66 14.01 4.32 13.02 5 12 C4.67 11.67 4.34 11.34 4 11 C3.63557767 9.33985384 3.30027117 7.67293936 3 6 C2.01 5.67 1.02 5.34 0 5 C0 3.35 0 1.7 0 0 Z " fill="#B24143" transform="translate(5,7)"/>
<path d="M0 0 C-0.30618405 3.67420866 -0.75771784 4.78135513 -3.5625 7.3125 C-4.366875 7.869375 -5.17125 8.42625 -6 9 C-6.75 6.75 -6.75 6.75 -7 4 C-4.69139139 0.94933862 -3.89789797 0 0 0 Z " fill="#AF4442" transform="translate(24,23)"/>
<path d="M0 0 C3.06188727 4.08251636 3.37243503 4.56497929 3.1875 9.25 C3.16042969 10.14203125 3.13335937 11.0340625 3.10546875 11.953125 C3.07066406 12.62859375 3.03585938 13.3040625 3 14 C2.01 14.33 1.02 14.66 0 15 C0 10.05 0 5.1 0 0 Z " fill="#B5585C" transform="translate(67,40)"/>
<path d="M0 0 C0.53625 0.515625 1.0725 1.03125 1.625 1.5625 C4.00496499 3.32605545 4.00496499 3.32605545 7.25 2.6875 C8.1575 2.460625 9.065 2.23375 10 2 C8.25 4.5 8.25 4.5 6 7 C4.68 7 3.36 7 2 7 C0 4 0 4 0 0 Z " fill="#CD8987" transform="translate(10,12)"/>
<path d="M0 0 C1.125 1.5625 1.125 1.5625 2 4 C1.125 7.75 1.125 7.75 0 11 C-1.5 9.8125 -1.5 9.8125 -3 8 C-3.1875 5.3125 -3.1875 5.3125 -3 3 C-2.34 3 -1.68 3 -1 3 C-0.67 2.01 -0.34 1.02 0 0 Z " fill="#7E7E7F" transform="translate(4,57)"/>
<path d="M0 0 C0.99 0.33 1.98 0.66 3 1 C3.33 2.98 3.66 4.96 4 7 C2.35 7.33 0.7 7.66 -1 8 C-0.67 5.36 -0.34 2.72 0 0 Z " fill="#B83237" transform="translate(66,23)"/>
<path d="M0 0 C0.66 0.33 1.32 0.66 2 1 C1.34 2.65 0.68 4.3 0 6 C0.99 6.66 1.98 7.32 3 8 C0.625 8.1875 0.625 8.1875 -2 8 C-2.66 7.01 -3.32 6.02 -4 5 C-3.67 4.34 -3.34 3.68 -3 3 C-2.34 3 -1.68 3 -1 3 C-0.67 2.01 -0.34 1.02 0 0 Z " fill="#484848" transform="translate(24,78)"/>
<path d="M0 0 C1.32 0.33 2.64 0.66 4 1 C4 1.99 4 2.98 4 4 C2.02 4.66 0.04 5.32 -2 6 C-1.34 4.02 -0.68 2.04 0 0 Z " fill="#C2333A" transform="translate(61,19)"/>
<path d="M0 0 C0.556875 0.7425 1.11375 1.485 1.6875 2.25 C3.93027178 4.91707995 6.22074975 6.91556232 9 9 C5.85669777 8.6507442 4.20508548 8.16074267 1.6875 6.1875 C0 4 0 4 0 0 Z " fill="#F8DADB" transform="translate(24,57)"/>
<path d="M0 0 C2.31 0 4.62 0 7 0 C4.375 3.875 4.375 3.875 1 5 C0.67 3.35 0.34 1.7 0 0 Z " fill="#484848" transform="translate(1,56)"/>
<path d="M0 0 C3.65316671 1.24976756 4.78065836 1.67098753 7 5 C4.625 5.625 4.625 5.625 2 6 C1.34 5.34 0.68 4.68 0 4 C0 2.68 0 1.36 0 0 Z " fill="#AB4C51" transform="translate(58,14)"/>
<path d="M0 0 C-0.33 0.66 -0.66 1.32 -1 2 C-3.4375 2.75 -3.4375 2.75 -6 3 C-6.66 2.34 -7.32 1.68 -8 1 C-4.93251126 -0.86240388 -3.40254489 -1.2151946 0 0 Z " fill="#474A4B" transform="translate(55,76)"/>
<path d="M0 0 C0.66 0.33 1.32 0.66 2 1 C1.25 2.9375 1.25 2.9375 0 5 C-2.125 5.75 -2.125 5.75 -4 6 C-4 5.01 -4 4.02 -4 3 C-2.68 3 -1.36 3 0 3 C0 2.01 0 1.02 0 0 Z " fill="#5A5A5A" transform="translate(69,73)"/>
<path d="M0 0 C1.65 0 3.3 0 5 0 C5.33 1.32 5.66 2.64 6 4 C5.01 4 4.02 4 3 4 C1.3125 2 1.3125 2 0 0 Z " fill="#AB4548" transform="translate(56,26)"/>
</svg>
